<?xml version="1.0" standalone="no"?>
<!DOCTYPE svg PUBLIC "-//W3C//DTD SVG 20010904//EN"
 "http://www.w3.org/TR/2001/REC-SVG-20010904/DTD/svg10.dtd">
<svg version="1.0" xmlns="http://www.w3.org/2000/svg"
 width="256.000000pt" height="256.000000pt" viewBox="0 0 256.000000 256.000000"
 preserveAspectRatio="xMidYMid meet">

<g transform="translate(0.000000,256.000000) scale(0.100000,-0.100000)"
fill="#000000" stroke="none">
<path d="M1230 2550 c-66 -14 -197 -82 -262 -137 -112 -94 -206 -238 -257
-392 -12 -35 -21 -72 -21 -82 0 -10 -12 -21 -32 -28 -110 -38 -174 -171 -136
-282 6 -19 19 -45 28 -59 10 -14 21 -47 24 -75 18 -123 84 -199 209 -239 14
-4 -2 -16 -59 -46 -43 -22 -87 -49 -98 -59 -12 -10 -37 -21 -56 -25 -57 -10
-98 -41 -110 -83 -8 -25 -23 -46 -45 -60 -43 -28 -76 -99 -82 -176 -10 -121
65 -242 173 -282 27 -10 53 -22 58 -26 4 -4 -1 -33 -13 -64 -45 -120 -47 -255
-4 -314 11 -14 40 -37 65 -51 25 -14 60 -33 77 -43 47 -27 110 -32 175 -13 95
28 156 99 156 184 0 13 9 31 20 40 18 16 50 113 50 155 0 17 5 18 43 11 91
-16 228 -7 314 20 74 24 184 86 212 120 10 12 17 9 44 -15 40 -37 88 -53 142
-47 25 3 52 0 66 -8 71 -39 135 1 174 108 13 37 40 87 59 112 45 59 76 145 82
226 5 54 2 71 -15 98 -12 18 -33 38 -48 45 -16 6 -39 25 -53 41 -37 44 -94 66
-173 66 -79 0 -133 -23 -167 -70 -20 -28 -23 -29 -43 -15 -12 8 -30 15 -41 15
-11 0 -30 10 -42 21 l-23 21 58 68 c72 83 110 138 149 215 16 33 40 69 52 80
33 29 60 93 60 143 0 43 23 102 39 102 23 0 72 55 82 92 6 23 24 57 39 77 91
113 103 274 29 364 -32 39 -119 87 -158 87 -14 0 -37 11 -51 25 -15 14 -43 28
-64 32 -46 7 -121 -20 -143 -53 -8 -13 -21 -24 -28 -24 -8 0 -27 -12 -44 -26
-22 -19 -32 -22 -35 -12 -37 118 -87 183 -168 218 -59 25 -142 33 -208 20z
m217 -186 c42 -32 54 -55 56 -106 2 -38 -1 -42 -27 -49 -27 -8 -28 -7 -14 8
15 14 13 21 -25 79 -23 35 -45 64 -48 64 -3 0 -12 -18 -19 -40 l-13 -39 -38
30 -39 31 0 -76 c0 -42 -1 -79 -2 -83 -2 -5 9 -9 24 -11 25 -3 26 -2 21 39 -6
44 -1 46 38 12 15 -12 18 -10 28 18 12 35 20 32 39 -14 10 -24 9 -28 -6 -33
-9 -3 -50 -18 -91 -34 -41 -16 -78 -27 -83 -24 -19 12 -40 69 -40 110 0 124
140 193 239 118z m438 -35 c12 -10 36 -22 55 -25 48 -9 100 -37 130 -68 19
-21 25 -40 28 -91 4 -55 0 -73 -22 -118 -44 -91 -95 -121 -179 -106 -36 6 -38
5 -23 -10 11 -10 34 -16 66 -16 40 0 50 -3 50 -17 0 -22 -25 -46 -56 -54 -20
-5 -33 0 -57 24 -44 41 -66 50 -132 58 -48 6 -58 11 -66 31 -14 38 -13 40 59
62 38 11 87 34 111 51 39 29 45 30 77 20 39 -13 96 -6 113 13 8 10 0 13 -39
13 -54 0 -80 16 -73 43 3 11 -1 30 -8 42 -7 13 -12 34 -10 47 3 29 -48 80 -88
88 -37 8 -40 21 -8 33 26 10 45 5 72 -20z m-37 -74 c28 -33 25 -38 -14 -25
-16 5 -60 14 -99 18 l-70 9 35 17 c51 24 118 16 148 -19z m-267 -236 c20 -20
38 -57 53 -106 13 -41 -9 -24 -27 21 -20 48 -41 63 -63 45 -16 -13 -19 -86 -4
-124 8 -22 6 -32 -10 -52 -11 -14 -20 -30 -20 -36 0 -5 9 2 20 16 53 67 215
97 277 51 51 -38 73 -81 73 -144 0 -70 -26 -114 -90 -150 -66 -37 -175 -36
-245 2 -27 15 -77 32 -110 38 -32 5 -88 24 -123 40 -79 37 -90 37 -98 3 -3
-16 -8 -36 -10 -45 -3 -9 0 -35 6 -57 10 -37 29 -59 75 -86 13 -8 19 -32 24
-108 9 -108 24 -137 72 -137 32 0 89 45 116 91 14 24 24 29 56 29 l39 0 -32
-40 c-39 -50 -137 -99 -212 -107 -98 -10 -221 45 -332 147 -41 38 -47 40 -68
29 -13 -7 -54 -13 -93 -13 -135 -1 -217 68 -219 182 -1 70 27 115 88 143 84
38 136 21 195 -65 16 -23 49 -53 73 -66 43 -22 45 -22 71 -5 15 9 27 26 27 36
0 11 9 28 20 39 37 37 21 74 -48 112 -29 16 -52 48 -66 96 -7 20 -4 22 29 22
61 0 184 48 351 135 87 46 165 84 172 84 6 1 21 -8 33 -20z m-864 -974 c60
-18 123 -74 123 -111 0 -21 -3 -23 -19 -14 -35 18 -45 11 -16 -12 91 -71 83
-238 -11 -238 -33 0 -45 12 -24 25 15 9 12 35 -4 35 -30 0 -77 -94 -60 -121 5
-9 10 -8 19 5 13 18 48 12 42 -8 -6 -20 -71 -46 -113 -46 -90 0 -195 52 -234
116 -69 111 -9 273 113 306 53 14 62 28 17 28 -36 0 -38 13 -8 34 29 20 109
21 175 1z m984 -65 c23 -45 30 -125 10 -125 -20 0 -53 68 -59 122 -4 39 -3 45
13 42 10 -2 26 -20 36 -39z m444 -65 c-6 -45 -67 -180 -94 -210 -10 -11 -24
-38 -31 -60 -23 -72 -39 -95 -65 -95 l-25 0 35 46 c19 25 35 50 35 56 0 6 20
52 45 103 25 51 53 125 63 165 15 63 18 69 30 53 9 -12 11 -32 7 -58z m-710
42 c18 -15 28 -36 32 -64 5 -39 2 -46 -31 -79 -31 -31 -41 -36 -68 -30 -65 13
-98 70 -78 132 22 64 94 85 145 41z m-771 -474 c-3 -16 -13 -54 -21 -86 -7
-32 -17 -103 -20 -158 -3 -54 -9 -99 -13 -99 -16 0 -30 56 -30 118 0 45 8 90
25 137 14 39 25 80 25 93 0 15 6 22 20 22 17 0 19 -5 14 -27z"/>
<path d="M1289 1888 c-25 -47 13 -178 55 -186 24 -5 36 14 36 59 0 47 -17 98
-43 127 -25 28 -33 28 -48 0z"/>
<path d="M786 1561 c37 -22 51 -41 32 -41 -7 0 2 -9 20 -20 52 -32 36 -77 -33
-95 -25 -7 -26 -9 -9 -12 31 -6 71 13 90 42 15 23 15 29 2 63 -16 42 -68 82
-107 82 l-26 0 31 -19z"/>
<path d="M485 863 c-26 -40 -32 -77 -14 -89 19 -12 49 30 55 79 8 58 -5 62
-41 10z"/>
<path d="M594 821 c-26 -40 -29 -81 -7 -88 17 -6 41 35 49 85 8 54 -7 55 -42
3z"/>
</g>
</svg>
